<svg width="141" height="30" fill="none" xmlns="http://www.w3.org/2000/svg"><path d="M0 .18h17.683v4.154H4.826v8.473h12.357v4.03H4.826v12.586H0V.18zm20.834 10.218h4.577v19.025h-4.577V10.398zm-.208-9.138h4.993v5.815h-4.993V1.26zM32.47 14.137h-4.161V10.4h4.16V5.33l4.577-.997v6.065h4.91v3.738h-4.91v15.286H32.47V14.137zm24.105-4.196c2.136 0 3.8.596 4.993 1.787 1.22 1.163 1.831 2.921 1.831 5.275v12.42h-4.535V17.875c0-1.384-.36-2.423-1.082-3.115-.721-.692-1.72-1.039-2.996-1.039-1.22 0-2.288.319-3.203.956-.916.637-1.595 1.509-2.039 2.617v12.129h-4.577V10.398h4.577v2.991a7.658 7.658 0 012.954-2.534c1.193-.609 2.552-.914 4.078-.914zm28.247 8.516c0 .803-.097 1.8-.291 2.99H71.133c.5 3.13 2.552 4.694 6.158 4.694 1.997 0 3.883-.498 5.659-1.495v3.822c-2.053.941-4.106 1.412-6.158 1.412-2.053 0-3.856-.415-5.409-1.246s-2.76-1.994-3.62-3.49c-.832-1.523-1.248-3.281-1.248-5.275 0-1.966.388-3.697 1.165-5.192.804-1.523 1.928-2.686 3.37-3.49 1.47-.83 3.162-1.246 5.076-1.246 2.663 0 4.771.776 6.324 2.327 1.581 1.523 2.372 3.586 2.372 6.189zm-8.613-4.777c-1.47 0-2.649.415-3.536 1.246-.86.803-1.387 1.98-1.581 3.53h9.777c0-1.522-.402-2.7-1.206-3.53-.805-.83-1.956-1.246-3.454-1.246zm17.318 12.628c.97 0 1.733-.194 2.288-.582.555-.415.832-.983.832-1.703 0-.637-.277-1.15-.832-1.537-.527-.415-1.58-.9-3.162-1.454-2.052-.72-3.536-1.51-4.452-2.367-.915-.859-1.373-1.925-1.373-3.199 0-1.634.694-2.963 2.08-3.988 1.388-1.024 3.204-1.537 5.451-1.537 2.22 0 4.41.54 6.574 1.62v3.822a14.326 14.326 0 00-3.204-1.37c-1.137-.36-2.247-.54-3.328-.54-.916 0-1.637.165-2.164.498-.5.304-.749.733-.749 1.287 0 .499.222.914.666 1.247.471.332 1.373.72 2.704 1.163 1.665.581 2.954 1.163 3.87 1.744.943.554 1.609 1.177 1.997 1.87.388.692.582 1.523.582 2.492 0 1.938-.679 3.447-2.038 4.527-1.36 1.053-3.26 1.579-5.7 1.579-2.08 0-4.272-.637-6.574-1.91v-3.78a15.813 15.813 0 003.245 1.536c1.137.388 2.233.582 3.287.582zm16.537 0c.971 0 1.733-.194 2.288-.582.555-.415.832-.983.832-1.703 0-.637-.277-1.15-.832-1.537-.527-.415-1.581-.9-3.162-1.454-2.053-.72-3.537-1.51-4.452-2.367-.915-.859-1.373-1.925-1.373-3.199 0-1.634.694-2.963 2.08-3.988 1.387-1.024 3.204-1.537 5.451-1.537 2.219 0 4.41.54 6.574 1.62v3.822a14.337 14.337 0 00-3.204-1.37c-1.137-.36-2.247-.54-3.328-.54-.916 0-1.637.165-2.164.498-.499.304-.749.733-.749 1.287 0 .499.222.914.666 1.247.471.332 1.373.72 2.704 1.163 1.664.581 2.954 1.163 3.87 1.744.943.554 1.608 1.177 1.997 1.87.388.692.582 1.523.582 2.492 0 1.938-.679 3.447-2.038 4.527-1.36 1.053-3.26 1.579-5.701 1.579-2.08 0-4.271-.637-6.573-1.91v-3.78a15.808 15.808 0 003.245 1.536c1.137.388 2.233.582 3.287.582zm20.406 3.572c-2.08 0-3.911-.415-5.492-1.246-1.581-.859-2.801-2.036-3.661-3.531-.86-1.495-1.29-3.226-1.29-5.192 0-1.966.43-3.697 1.29-5.193.86-1.495 2.08-2.658 3.661-3.489 1.581-.858 3.412-1.288 5.492-1.288s3.897.43 5.451 1.288c1.581.83 2.801 1.994 3.661 3.49.86 1.495 1.29 3.226 1.29 5.192 0 1.966-.43 3.697-1.29 5.192-.86 1.495-2.08 2.672-3.661 3.53-1.554.832-3.371 1.247-5.451 1.247zm0-3.739c1.664 0 3.037-.567 4.119-1.703 1.082-1.135 1.623-2.644 1.623-4.527s-.541-3.393-1.623-4.528c-1.082-1.135-2.455-1.703-4.119-1.703-1.664 0-3.037.568-4.119 1.703-1.082 1.135-1.623 2.645-1.623 4.528 0 1.883.541 3.392 1.623 4.527 1.082 1.136 2.455 1.703 4.119 1.703zM45.217 0h94.771v4.038h-94.77V0z" fill="#fff"/></svg>