<svg width="94" height="20" fill="none" xmlns="http://www.w3.org/2000/svg"><path d="M0 .12h11.789v2.77H3.218v5.648h8.238v2.687H3.218v8.39H0V.12zm13.89 6.812h3.05v12.683h-3.05V6.932zM13.75.84h3.33v3.877h-3.33V.84zm7.896 8.585h-2.773V6.932h2.773V3.554l3.052-.665v4.043h3.273v2.493h-3.273v10.19h-3.052V9.425zm16.071-2.797c1.424 0 2.534.397 3.329 1.19.813.776 1.22 1.948 1.22 3.517v8.28h-3.023v-7.698c0-.923-.24-1.615-.722-2.077-.48-.462-1.146-.692-1.997-.692-.813 0-1.525.212-2.136.637-.61.424-1.063 1.006-1.359 1.744v8.086h-3.05V6.932h3.05v1.994A5.106 5.106 0 0135 7.236c.795-.405 1.701-.608 2.718-.608zm18.831 5.677c0 .535-.065 1.2-.194 1.994h-8.932c.333 2.086 1.702 3.129 4.105 3.129a7.586 7.586 0 003.773-.997v2.547c-1.369.628-2.737.942-4.105.942-1.369 0-2.57-.277-3.606-.83a5.972 5.972 0 01-2.413-2.327c-.555-1.015-.833-2.188-.833-3.517 0-1.31.26-2.465.777-3.461.536-1.016 1.285-1.791 2.247-2.327.98-.553 2.108-.83 3.384-.83 1.775 0 3.18.517 4.216 1.55 1.054 1.016 1.58 2.391 1.58 4.127zM50.806 9.12c-.98 0-1.766.277-2.357.83-.574.536-.925 1.32-1.054 2.355h6.518c0-1.016-.268-1.8-.804-2.354-.537-.554-1.304-.831-2.303-.831zm11.545 8.418c.648 0 1.156-.129 1.526-.387.37-.277.555-.656.555-1.136 0-.424-.185-.766-.555-1.024-.352-.277-1.054-.6-2.108-.97-1.369-.48-2.358-1.006-2.968-1.578-.61-.572-.916-1.283-.916-2.132 0-1.09.463-1.976 1.387-2.659.925-.683 2.136-1.024 3.634-1.024 1.48 0 2.94.36 4.383 1.08v2.547a9.545 9.545 0 00-2.136-.913 7.332 7.332 0 00-2.22-.36c-.61 0-1.09.11-1.442.332-.332.203-.499.49-.499.858 0 .333.148.61.444.831.314.222.915.48 1.803.775 1.11.388 1.97.776 2.58 1.163.628.37 1.072.785 1.33 1.247.26.461.39 1.015.39 1.661 0 1.293-.454 2.299-1.36 3.019-.906.701-2.173 1.052-3.8 1.052-1.387 0-2.848-.425-4.383-1.274v-2.52c.685.425 1.406.766 2.164 1.025a6.782 6.782 0 002.191.387zm11.025 0c.647 0 1.156-.129 1.525-.387.37-.277.555-.656.555-1.136 0-.424-.185-.766-.555-1.024-.35-.277-1.054-.6-2.108-.97-1.368-.48-2.357-1.006-2.968-1.578-.61-.572-.915-1.283-.915-2.132 0-1.09.462-1.976 1.387-2.659.925-.683 2.136-1.024 3.634-1.024 1.479 0 2.94.36 4.382 1.08v2.547a9.547 9.547 0 00-2.136-.913 7.332 7.332 0 00-2.219-.36c-.61 0-1.09.11-1.442.332-.333.203-.5.49-.5.858 0 .333.149.61.444.831.315.222.916.48 1.803.775 1.11.388 1.97.776 2.58 1.163.629.37 1.073.785 1.331 1.247.26.461.389 1.015.389 1.661 0 1.293-.453 2.299-1.36 3.019-.905.701-2.172 1.052-3.8 1.052-1.386 0-2.847-.425-4.382-1.274v-2.52c.684.425 1.405.766 2.164 1.025a6.782 6.782 0 002.19.387zM86.98 19.92c-1.387 0-2.607-.277-3.661-.83-1.054-.573-1.868-1.358-2.441-2.355-.573-.996-.86-2.15-.86-3.461 0-1.31.287-2.465.86-3.462.573-.997 1.387-1.772 2.44-2.326 1.055-.572 2.275-.858 3.662-.858s2.598.286 3.634.858c1.054.554 1.867 1.33 2.44 2.326.574.997.86 2.151.86 3.462 0 1.31-.286 2.465-.86 3.461-.573.997-1.386 1.782-2.44 2.354-1.036.554-2.247.831-3.634.831zm0-2.492c1.11 0 2.025-.379 2.746-1.136.721-.757 1.082-1.763 1.082-3.018s-.36-2.262-1.082-3.019c-.721-.757-1.636-1.135-2.746-1.135s-2.025.378-2.746 1.135c-.721.757-1.082 1.763-1.082 3.019 0 1.255.36 2.261 1.082 3.018.721.757 1.637 1.136 2.746 1.136zM30.145 0h63.18v2.692h-63.18V0z" fill="#000"/></svg>